<?xml version="1.0" encoding="utf-8"?>
<svg xmlns="http://www.w3.org/2000/svg" width="500" height="500" viewBox="0 0 100 100">
  <circle cx="13" cy="29" r="2" fill="#ee3e54" />
  <circle cx="77" cy="13" r="1" fill="#f1bc19" />
  <circle cx="50" cy="50" r="37" fill="#fce0a2" />
  <circle cx="83" cy="15" r="4" fill="#f1bc19" />
  <circle cx="87" cy="24" r="2" fill="#ee3e54" />
  <circle cx="81" cy="76" r="2" fill="#fbcd59" />
  <circle cx="15" cy="63" r="4" fill="#fbcd59" />
  <circle cx="25" cy="87" r="2" fill="#ee3e54" />
  <circle cx="18.5" cy="53.5" r="2.5" fill="#fff" />
  <circle cx="21" cy="67" r="1" fill="#f1bc19" />
  <circle cx="80" cy="34" r="1" fill="#fff" />
  <path fill="#4792dd" d="M37,71.3c-4.025,0-7.3-3.274-7.3-7.3V36c0-4.025,3.274-7.3,7.3-7.3h28c4.025,0,7.3,3.274,7.3,7.3v28c0,4.025-3.274,7.3-7.3,7.3H37z" />
  <path fill="#472b29" d="M65,29.4c3.639,0,6.6,2.961,6.6,6.6v28c0,3.639-2.961,6.6-6.6,6.6H37c-3.639,0-6.6-2.961-6.6-6.6V36c0-3.639,2.961-6.6,6.6-6.6H65 M65,28H37c-4.418,0-8,3.582-8,8v28c0,4.418,3.582,8,8,8h28c4.418,0,8-3.582,8-8V36C73,31.582,69.418,28,65,28L65,28z" />
  <path fill="#472b29" d="M68.446,47.511c-0.276,0-0.5-0.224-0.5-0.5v-3.706c0-0.276,0.224-0.5,0.5-0.5s0.5,0.224,0.5,0.5v3.706C68.946,47.287,68.722,47.511,68.446,47.511z" />
  <path fill="#472b29" d="M68.508,41.06c-0.276,0-0.5-0.224-0.5-0.5v-1.913c0-0.276,0.224-0.5,0.5-0.5s0.5,0.224,0.5,0.5v1.913C69.008,40.836,68.785,41.06,68.508,41.06z" />
  <path fill="#472b29" d="M64.251,67.938H37.812c-2.619,0-4.749-2.131-4.749-4.749v-26.44c0-2.618,2.13-4.749,4.749-4.749h23.96c0.276,0,0.5,0.224,0.5,0.5s-0.224,0.5-0.5,0.5h-23.96c-2.067,0-3.749,1.682-3.749,3.749v26.439c0,2.067,1.682,3.749,3.749,3.749h26.439c2.067,0,3.749-1.682,3.749-3.749V49.614c0-0.276,0.224-0.5,0.5-0.5s0.5,0.224,0.5,0.5v13.574C69,65.807,66.87,67.938,64.251,67.938z" />
  <g>
    <path fill="#fdfcef" d="M59.27,42.477c-1.597-1.992-4.459-3.325-7.736-3.325c-3.935,0-7.275,1.919-8.536,4.599 c-2.963,1.031-4.969,4.104-4.31,7.54c0.486,2.535,2.498,4.593,5.021,5.139c1.864,0.403,3.624,0.008,5.025-0.894l0.406,4.021 c0.043,0.425,0.59,0.57,0.838,0.222l3.271-4.598c0.079,0.004,0.153,0.023,0.233,0.023c2.005,0,3.722-1.192,4.511-2.901 c0.156,0.015,0.307,0.047,0.467,0.047c2.749,0,4.978-2.229,4.978-4.978C63.438,44.901,61.631,42.866,59.27,42.477z" />
    <path fill="#472b29" d="M49.604,60.475c-0.083,0-0.167-0.011-0.251-0.033c-0.392-0.104-0.671-0.431-0.711-0.833l-0.33-3.259 c-1.444,0.716-3.09,0.92-4.709,0.57c-2.711-0.586-4.884-2.811-5.406-5.534c-0.663-3.458,1.198-6.802,4.44-8.035 c1.439-2.818,4.981-4.698,8.896-4.698c3.251,0,6.227,1.255,8.005,3.366c2.561,0.511,4.398,2.733,4.398,5.355 c0,3.021-2.457,5.478-5.478,5.478c-0.061,0-0.119-0.003-0.178-0.009c-0.955,1.749-2.797,2.86-4.793,2.863l-3.104,4.364 C50.2,60.329,49.91,60.475,49.604,60.475z M48.733,55.036c0.074,0,0.148,0.017,0.217,0.05c0.157,0.075,0.263,0.227,0.28,0.4 l0.406,4.021l3.204-4.616c0.099-0.138,0.261-0.223,0.432-0.209c0.052,0.002,0.102,0.009,0.151,0.016c0.006,0,0.012,0,0.019,0 c1.783,0,3.367-1.023,4.097-2.603c0.089-0.192,0.286-0.316,0.501-0.288l0.183,0.022c0.078,0.01,0.156,0.022,0.237,0.022 c2.469,0,4.478-2.009,4.478-4.478c0-2.193-1.577-4.045-3.749-4.403c-0.122-0.02-0.231-0.084-0.309-0.18 c-1.575-1.965-4.321-3.138-7.346-3.138c-3.622,0-6.87,1.733-8.084,4.312c-0.057,0.122-0.161,0.215-0.288,0.259 c-2.89,1.006-4.564,3.938-3.982,6.973c0.448,2.335,2.311,4.242,4.635,4.745c1.625,0.351,3.275,0.058,4.648-0.826 C48.545,55.063,48.639,55.036,48.733,55.036z" />
  </g>
</svg>